<svg width="9" height="13" viewBox="0 0 9 13" fill="none" xmlns="http://www.w3.org/2000/svg">
<path d="M2.59091 8.86364H5.27273V8.59091C5.27273 7.6875 5.69886 7.23295 6.52273 6.75C7.63068 6.10227 8.38636 5.28977 8.38636 3.90909C8.38636 1.77273 6.58523 0.704545 4.15909 0.704545C1.94886 0.704545 0.113636 1.75 0.0909091 4.25H3C3 3.59659 3.52273 3.13636 4.13636 3.13636C4.70455 3.13636 5.15909 3.52273 5.15909 4.09091C5.15909 4.72727 4.60795 5.11932 3.88636 5.59091C3.03977 6.14205 2.59091 6.72159 2.59091 8.59091V8.86364ZM3.97727 12.6818C4.8125 12.6818 5.55682 11.9773 5.56818 11.0909C5.55682 10.2273 4.8125 9.52273 3.97727 9.52273C3.09659 9.52273 2.375 10.2273 2.38636 11.0909C2.375 11.9773 3.09659 12.6818 3.97727 12.6818Z" fill="#3F4E65"/>
</svg>
