<svg width="47" height="47" viewBox="0 0 47 47" fill="none" xmlns="http://www.w3.org/2000/svg">
<g clip-path="url(#clip0_4_703)" filter="url(#filter0_d_4_703)">
<path d="M23.5 0C12.7304 0 4 8.73036 4 19.5C4 30.2696 12.7304 39 23.5 39C34.2696 39 43 30.2696 43 19.5C43 8.73036 34.2696 0 23.5 0Z" fill="#40B3E0"/>
<path d="M32.9884 11.2169L29.5054 28.7774C29.5054 28.7774 29.0183 29.9953 27.6788 29.4107L19.6414 23.2487L16.7188 21.8362L11.7991 20.1799C11.7991 20.1799 11.044 19.9121 10.9709 19.3275C10.8978 18.743 11.8234 18.4264 11.8234 18.4264L31.3807 10.7544C31.3807 10.7544 32.9882 10.0481 32.9882 11.2172" fill="white"/>
<path d="M19.0237 28.5799C19.0237 28.5799 18.7891 28.558 18.4966 27.6324C18.2046 26.7069 16.7188 21.8358 16.7188 21.8358L28.5312 14.3344C28.5312 14.3344 29.2132 13.9204 29.1888 14.3344C29.1888 14.3344 29.3106 14.4075 28.9451 14.7485C28.5799 15.0896 19.6658 23.1024 19.6658 23.1024" fill="#D2E5F1"/>
<path d="M22.7228 25.6112L19.5438 28.5097C19.5438 28.5097 19.2952 28.6983 19.0234 28.5801L19.6322 23.1963" fill="#B5CFE4"/>
</g>
<defs>
<filter id="filter0_d_4_703" x="0" y="0" width="47" height="47" filterUnits="userSpaceOnUse" color-interpolation-filters="sRGB">
<feFlood flood-opacity="0" result="BackgroundImageFix"/>
<feColorMatrix in="SourceAlpha" type="matrix" values="0 0 0 0 0 0 0 0 0 0 0 0 0 0 0 0 0 0 127 0" result="hardAlpha"/>
<feOffset dy="4"/>
<feGaussianBlur stdDeviation="2"/>
<feComposite in2="hardAlpha" operator="out"/>
<feColorMatrix type="matrix" values="0 0 0 0 0 0 0 0 0 0 0 0 0 0 0 0 0 0 0.25 0"/>
<feBlend mode="normal" in2="BackgroundImageFix" result="effect1_dropShadow_4_703"/>
<feBlend mode="normal" in="SourceGraphic" in2="effect1_dropShadow_4_703" result="shape"/>
</filter>
<clipPath id="clip0_4_703">
<rect width="39" height="39" fill="white" transform="translate(4)"/>
</clipPath>
</defs>
</svg>
